<?xml version="1.0" standalone="no"?>
<!DOCTYPE svg PUBLIC "-//W3C//DTD SVG 20010904//EN"
 "http://www.w3.org/TR/2001/REC-SVG-20010904/DTD/svg10.dtd">
<svg version="1.0" xmlns="http://www.w3.org/2000/svg"
 width="1024.000000pt" height="1024.000000pt" viewBox="0 0 1024.000000 1024.000000"
 preserveAspectRatio="xMidYMid meet">
<metadata>
Created by potrace 1.11, written by Peter Selinger 2001-2013
</metadata>
<g transform="translate(0.000000,1024.000000) scale(0.100000,-0.100000)"
fill="#000000" stroke="none">
<path d="M95 10224 c-44 -23 -65 -44 -81 -83 -12 -29 -14 -738 -14 -5032 l0
-4998 33 -43 c19 -25 47 -48 67 -55 27 -9 1186 -12 5023 -12 4243 -1 4993 1
5021 13 18 8 46 31 62 52 l29 37 3 5001 c2 3800 -1 5008 -9 5031 -18 45 -58
84 -98 95 -24 6 -1768 10 -5021 10 -4501 0 -4988 -2 -5015 -16z"/>
</g>
</svg>
